<svg width="26" height="26" viewBox="0 0 26 26" fill="none" xmlns="http://www.w3.org/2000/svg">
<path fill-rule="evenodd" clip-rule="evenodd" d="M22.7505 13.432L20.4076 14.7495L22.2463 17.8806C22.9838 19.1387 22.3713 20.1671 20.8825 20.1671H16.8245V17.5333L12.7678 21.4847L16.8245 25.436V22.8023H20.8825C22.581 22.8023 23.9879 22.0793 24.7393 20.8185C25.4906 19.5577 25.4378 18.0104 24.5934 16.5739L22.7505 13.432ZM3.28777 17.8806L5.10016 14.7928L7.39447 16.082L5.90845 10.6847L0.367113 12.1306L2.75725 13.4752L0.94069 16.5739C0.0962964 18.0104 0.0435217 19.5577 0.794865 20.8185C1.54621 22.0793 2.95307 22.8023 4.65158 22.8023H10.061V20.1671H4.65158C3.16278 20.1671 2.55031 19.1387 3.28777 17.8806ZM6.11399 7.75495L9.07617 2.70631C9.92334 1.26441 11.2677 0.436035 12.7676 0.436035C14.2661 0.436035 15.6105 1.26441 16.4577 2.70631L19.3964 7.71441L21.7768 6.37658L20.2908 11.7739L14.748 10.3279L17.0521 9.03198L14.1092 4.01441C13.3692 2.7532 12.1624 2.75671 11.4246 4.01441L8.45676 9.07252L6.11399 7.75495Z" fill="#484848"/>
</svg>
