<svg width="110" height="22" viewBox="0 0 110 22" fill="none" xmlns="http://www.w3.org/2000/svg">
    <g clip-path="url(#clip0_4_8)">
        <path
            d="M13.2777 0H0C0.232441 0.5797 0.330412 1.21732 0.284668 1.8522V19.6978C0.328698 20.3326 0.230801 20.9697 0 21.55H13.2777C13.0374 20.9729 12.9348 20.3342 12.98 19.6978V1.8522C12.9323 1.21571 13.035 0.576272 13.2777 0Z"
            fill="#FFCD3F" />
        <path
            d="M43.0035 8.81992L47.74 2.73415C48.5337 1.68282 49.4528 0.762567 50.4706 0H37.5294C37.2212 1.10106 36.6943 2.10693 35.9894 2.93997C35.0835 4.21886 31.1235 9.65782 31.1235 9.65782V1.86687C31.0758 1.23038 31.1786 0.590986 31.4212 0.0147142H19.0236C19.256 0.594414 19.354 1.23199 19.3082 1.86687V19.6978C19.3523 20.3326 19.2544 20.9697 19.0236 21.55H31.4212C31.1809 20.9729 31.0783 20.3342 31.1235 19.6978V12.1862L35.1612 18.6541C35.7637 19.5106 36.1764 20.5188 36.3647 21.5941H51.26C50.7221 21.0306 50.2324 20.4104 49.7976 19.7419C48.9565 18.463 43.0035 8.81992 43.0035 8.81992Z"
            fill="#FFCD3F" />
        <path
            d="M109.042 19.6684C108.615 18.463 103.128 3.20455 102.572 1.85217L102.455 1.51405C102.227 1.07072 102.14 0.5516 102.209 0.0440674H85.0623C85.0948 0.670124 84.9786 1.29462 84.7258 1.85217L78.6565 19.6978C78.4518 20.3735 78.1404 21.0011 77.7375 21.55H87.8706C87.8443 20.9639 87.9419 20.3792 88.1553 19.8448V19.6978C88.3494 19.0657 88.5693 18.463 88.5693 18.463L88.6859 18.1396H96.0882L96.2046 18.4483L96.6705 19.6684C96.9375 20.2378 97.0713 20.8756 97.0588 21.5206H110C109.57 20.9866 109.243 20.3554 109.042 19.6684ZM91.0541 12.9212L92.0765 9.51078C92.3612 8.61409 92.5424 8.0408 92.5682 7.9085C92.7104 7.43009 92.8144 6.93811 92.8788 6.43852C92.9697 6.9359 93.0864 7.42675 93.2283 7.9085L94.833 12.9358L91.0541 12.9212Z"
            fill="#FFCD3F" />
        <path
            d="M75.9517 15.8758H65.5988V13.0535H75.5765V8.51123H65.5988V5.67413H75.9517C76.5671 5.6268 77.1844 5.72698 77.7635 5.96814V0H53.0588C53.3082 0.579268 53.4155 1.22417 53.3694 1.86687V19.6978C53.4164 20.3358 53.309 20.9763 53.0588 21.55H77.7248V15.5672C77.1602 15.8137 76.5554 15.9189 75.9517 15.8758Z"
            fill="#FFCD3F" />
    </g>
    <defs>
        <clipPath id="clip0_4_8">
            <rect width="110" height="21.55" fill="white" />
        </clipPath>
    </defs>
</svg>