<svg width="20" height="20" viewBox="0 0 20 20" fill="none" xmlns="http://www.w3.org/2000/svg">
<path d="M18.3334 6.66667V13.3333C18.3407 13.4447 18.3242 13.5563 18.2849 13.6607C18.2457 13.7652 18.1845 13.86 18.1056 13.9389C18.0267 14.0178 17.9319 14.079 17.8274 14.1183C17.723 14.1575 17.6114 14.174 17.5 14.1667H11.6667V17.5L1.66669 16V4L11.6667 2.5V5.83333H17.5C17.6114 5.82597 17.723 5.84247 17.8274 5.88175C17.9319 5.92102 18.0267 5.98216 18.1056 6.06106C18.1845 6.13996 18.2457 6.23481 18.2849 6.33925C18.3242 6.4437 18.3407 6.55533 18.3334 6.66667ZM17.5 6.75L14.1667 8.66667L11.6667 7.25V8.58333L14.1667 10L17.5 8.08333V6.75ZM6.60002 6.75C4.85002 6.69167 3.99169 8.23333 3.99169 10.0833C3.99169 11.9333 4.88335 13.4167 6.60002 13.4167C8.15835 13.4167 9.16669 12.0083 9.16669 10.175C9.16669 8.34167 8.44169 6.84167 6.60002 6.775M6.34169 8.08333C7.04169 8.08333 7.66669 8.7 7.66669 9.95833C7.66669 11.2167 7.04169 11.925 6.34169 11.925C5.64169 11.925 5.08335 11 5.08335 10C5.08335 9 5.65002 8.08333 6.34169 8.08333Z" fill="white"/>
</svg>
