<svg width="28" height="25" viewBox="0 0 28 25" fill="none" xmlns="http://www.w3.org/2000/svg">
<path d="M8.16635 9.76562C8.16635 10.4128 7.61747 10.9375 6.94038 10.9375C6.26329 10.9375 5.71441 10.4128 5.71441 9.76562C5.71441 9.11842 6.26329 8.59375 6.94038 8.59375C7.61747 8.59375 8.16635 9.11842 8.16635 9.76562Z" fill="#484848"/>
<path d="M10.0267 7.42743C10.9597 7.17119 11.9638 7.03125 13.0118 7.03125C14.1005 7.03125 15.1419 7.18226 16.1052 7.45779C16.5377 7.58148 16.9932 7.34665 17.1225 6.93328C17.2519 6.51992 17.0063 6.08455 16.5738 5.96087C15.4579 5.64169 14.2586 5.46875 13.0118 5.46875C11.8116 5.46875 10.6555 5.62901 9.57529 5.9257C9.14146 6.04486 8.89082 6.47763 9.01548 6.89232C9.14014 7.30701 9.59289 7.54659 10.0267 7.42743Z" fill="#484848"/>
<path fill-rule="evenodd" clip-rule="evenodd" d="M13.012 2.38647C8.14465 2.38647 3.90446 5.0485 2.67984 8.83179H1.78238C0.767608 8.83179 -0.001954 9.70636 0.171918 10.662L0.587162 12.9443C0.791415 14.0669 1.81077 14.8865 3.00285 14.8865H3.43232C3.92166 15.688 4.5568 16.4146 5.30487 17.0456L4.11317 20.9159C4.04043 21.1521 4.08846 21.4073 4.24278 21.6045C4.39709 21.8016 4.63962 21.9177 4.89723 21.9177H8.16649C8.51206 21.9177 8.82029 21.71 8.93634 21.3988L9.724 19.2871C10.7614 19.5582 11.8667 19.7042 13.012 19.7042C14.1668 19.7042 15.2809 19.5558 16.3258 19.2803L17.2144 21.4242C17.3379 21.7221 17.6391 21.9177 17.9743 21.9177H21.2435C21.5024 21.9177 21.746 21.8005 21.9001 21.6017C22.0543 21.4029 22.1008 21.146 22.0255 20.9093L20.7804 16.9934C22.5674 15.4603 23.6954 13.373 23.6954 11.0453C23.6954 10.8181 23.6848 10.5934 23.6641 10.3714C24.09 10.1996 24.4928 9.95619 24.8151 9.67775C25.33 10.1562 26.1473 10.1562 26.1473 9.02717C26.1473 9.375 25.33 9.375 25.3934 8.98549C25.4615 8.85835 25.5126 8.72505 25.5399 8.58728C25.6109 8.22969 25.5142 7.86958 25.2103 7.57908C24.856 7.24041 24.3962 7.24911 24.0552 7.42694C23.734 7.59439 23.4818 7.92361 23.442 8.30473C23.4023 8.68392 23.5766 9.05523 23.9653 9.32611C23.8328 9.41394 23.6903 9.49471 23.5424 9.56531C22.6694 5.403 18.1741 2.38647 13.012 2.38647ZM4.10675 9.78083C4.84933 6.55296 8.46571 3.94897 13.012 3.94897C18.1534 3.94897 22.0608 7.25189 22.0608 11.0453C22.0608 13.0054 21.0409 14.8102 19.3312 16.1203C19.0704 16.32 18.9632 16.6514 19.0604 16.957L20.1409 20.3552H18.5296L17.5665 18.0314C17.4051 17.6422 16.9514 17.4437 16.5378 17.5814C15.4566 17.9414 14.2656 18.1417 13.012 18.1417C11.7583 18.1417 10.5673 17.9414 9.48615 17.5814C9.06208 17.4402 8.59825 17.6525 8.44744 18.0568L7.59018 20.3552H5.98976L7.02438 16.9951C7.11866 16.6889 7.0086 16.3587 6.74641 16.161C5.84207 15.4794 5.12588 14.6587 4.6473 13.753C4.50826 13.4899 4.22614 13.324 3.91776 13.324H3.00285C2.60549 13.324 2.2657 13.0508 2.19762 12.6766L1.78238 10.3943H3.30851C3.69226 10.3943 4.02434 10.1391 4.10675 9.78083ZM24.7369 8.44171C24.7185 8.53437 24.667 8.64652 24.5762 8.77063C24.5503 8.75773 24.5263 8.74467 24.5041 8.73154C24.2666 8.59123 24.2473 8.45776 24.2552 8.38246C24.2664 8.2753 24.3463 8.16507 24.4466 8.11279C24.5269 8.07088 24.578 8.07957 24.6323 8.13151C24.7371 8.23165 24.7596 8.32729 24.7369 8.44171Z" fill="#484848"/>
</svg>
