<svg width="25" height="24" viewBox="0 0 25 24" fill="none" xmlns="http://www.w3.org/2000/svg">
<path d="M4.64174 0.545638C4.93858 0.199317 5.37194 0 5.82807 0H19.1719C19.6281 0 20.0614 0.199316 20.3583 0.545638L24.4358 5.30271C24.7999 5.7275 25 6.26853 25 6.82801V7.22656C25 9.27606 23.3386 10.9375 21.2891 10.9375C20.0982 10.9375 19.0384 10.3766 18.3594 9.50455C17.6803 10.3766 16.6205 10.9375 15.4297 10.9375C14.2389 10.9375 13.179 10.3766 12.5 9.50455C11.821 10.3766 10.7611 10.9375 9.57031 10.9375C8.37948 10.9375 7.31966 10.3766 6.64063 9.50455C5.9616 10.3766 4.90177 10.9375 3.71094 10.9375C1.66144 10.9375 0 9.27606 0 7.22656V6.82801C0 6.26853 0.200138 5.7275 0.564242 5.30271L4.64174 0.545638ZM7.42188 7.22656C7.42188 8.41311 8.38376 9.375 9.57031 9.375C10.7569 9.375 11.7188 8.41311 11.7188 7.22656C11.7188 6.79509 12.0685 6.44531 12.5 6.44531C12.9315 6.44531 13.2812 6.79509 13.2812 7.22656C13.2812 8.41311 14.2431 9.375 15.4297 9.375C16.6162 9.375 17.5781 8.41311 17.5781 7.22656C17.5781 6.79509 17.9279 6.44531 18.3594 6.44531C18.7908 6.44531 19.1406 6.79509 19.1406 7.22656C19.1406 8.41311 20.1025 9.375 21.2891 9.375C22.4756 9.375 23.4375 8.41311 23.4375 7.22656V6.82801C23.4375 6.64151 23.3708 6.46117 23.2494 6.31957L19.1719 1.5625H5.82807L1.75058 6.31957C1.62921 6.46117 1.5625 6.64151 1.5625 6.82801V7.22656C1.5625 8.41311 2.52439 9.375 3.71094 9.375C4.89749 9.375 5.85938 8.41311 5.85938 7.22656C5.85938 6.79509 6.20915 6.44531 6.64062 6.44531C7.0721 6.44531 7.42188 6.79509 7.42188 7.22656ZM2.34375 11.7188C2.77522 11.7188 3.125 12.0685 3.125 12.5V21.875H4.6875V14.0625C4.6875 13.1996 5.38705 12.5 6.25 12.5H10.9375C11.8004 12.5 12.5 13.1996 12.5 14.0625V21.875H21.875V12.5C21.875 12.0685 22.2248 11.7188 22.6562 11.7188C23.0877 11.7188 23.4375 12.0685 23.4375 12.5V21.875H24.2188C24.6502 21.875 25 22.2248 25 22.6562C25 23.0877 24.6502 23.4375 24.2188 23.4375H0.78125C0.349778 23.4375 0 23.0877 0 22.6562C0 22.2248 0.349778 21.875 0.78125 21.875H1.5625V12.5C1.5625 12.0685 1.91228 11.7188 2.34375 11.7188ZM6.25 21.875H10.9375V14.0625H6.25V21.875ZM14.0625 14.0625C14.0625 13.1996 14.7621 12.5 15.625 12.5H18.75C19.6129 12.5 20.3125 13.1996 20.3125 14.0625V18.75C20.3125 19.6129 19.6129 20.3125 18.75 20.3125H15.625C14.7621 20.3125 14.0625 19.6129 14.0625 18.75V14.0625ZM18.75 14.0625H15.625V18.75H18.75V14.0625Z" fill="#484848"/>
</svg>
