<svg width="20" height="20" viewBox="0 0 20 20" fill="none" xmlns="http://www.w3.org/2000/svg">
<path d="M16.7813 7.54635C17.7446 7.54635 18.5255 6.76546 18.5255 5.80217C18.5255 4.83888 17.7446 4.05798 16.7813 4.05798C15.818 4.05798 15.0372 4.83888 15.0372 5.80217C15.0372 6.76546 15.818 7.54635 16.7813 7.54635Z" fill="white"/>
<path d="M15.8513 15.6643C15.9634 15.6785 16.0777 15.6857 16.1938 15.6857H16.2065C17.7013 15.6857 18.9131 14.474 18.9131 12.9791V9.05781C18.9131 8.65114 18.5834 8.32141 18.1767 8.32141H16.0783C16.197 8.54614 16.2624 8.80298 16.258 9.07464V13.53C16.2743 14.2866 16.128 15.0092 15.8513 15.6643Z" fill="white"/>
<path d="M14.3413 14.953C13.8154 14.4593 13.4868 13.7579 13.4868 12.9796V9.15479H14.5913V13.549L14.5916 13.5587C14.6031 14.0512 14.5133 14.5226 14.3413 14.953Z" fill="white"/>
<path d="M11.6067 7.52633C12.8799 7.39993 13.8742 6.32577 13.8742 5.01938C13.8742 3.62797 12.7462 2.5 11.3548 2.5C9.96339 2.5 8.83539 3.62797 8.83539 5.01938C8.83539 5.06743 8.8368 5.11517 8.83939 5.16256H10.0629C10.9156 5.16256 11.6067 5.85375 11.6067 6.70635V7.52633Z" fill="white"/>
<path d="M9.94009 7.10433V6.82922H9.60217C9.70651 6.93028 9.81959 7.0224 9.94009 7.10433Z" fill="white"/>
<path d="M6.89661 13.6896C6.89608 13.6397 6.8964 13.5896 6.89757 13.5392V12.6466H7.29167V8.89656H8.75V8.32141H9.94008V13.6896H6.89661Z" fill="white"/>
<path d="M7.24585 15.3563H10.0629C10.9156 15.3563 11.6068 14.6651 11.6068 13.8126V8.32141H14.7143C15.1161 8.33135 15.434 8.66489 15.4247 9.06673V13.5392C15.4808 15.951 13.5728 17.9523 11.1612 18.0113C9.39427 17.9681 7.89771 16.8823 7.24585 15.3563Z" fill="white"/>
<path fill-rule="evenodd" clip-rule="evenodd" d="M10.0631 5.99585H2.95686C2.56449 5.99585 2.2464 6.31393 2.2464 6.70631V13.8125C2.2464 14.2049 2.56448 14.523 2.95686 14.523H10.0631C10.4554 14.523 10.7735 14.2049 10.7735 13.8125V6.70631C10.7735 6.31393 10.4554 5.99585 10.0631 5.99585ZM4.58333 8.89654H6.04167V12.6465H6.875V8.89654H8.33333V8.06321H4.58333V8.89654Z" fill="white"/>
</svg>
