<svg width="26" height="25" viewBox="0 0 26 25" fill="none" xmlns="http://www.w3.org/2000/svg">
<path d="M12.4038 3.14953C12.4309 3.13445 12.4648 3.125 12.5024 3.125C12.54 3.125 12.5739 3.13445 12.601 3.14953C12.6245 3.16255 12.6554 3.18634 12.6865 3.23926L23.4005 21.4684C23.4563 21.5632 23.4551 21.6625 23.4039 21.7549C23.3782 21.8012 23.346 21.8318 23.3184 21.849C23.2954 21.8632 23.2657 21.875 23.2164 21.875H1.78842C1.73912 21.875 1.70944 21.8632 1.68644 21.849C1.65879 21.8318 1.62665 21.8012 1.60095 21.7549C1.54969 21.6625 1.54857 21.5632 1.60429 21.4684L12.3183 3.23926C12.3494 3.18634 12.3804 3.16255 12.4038 3.14953ZM14.0336 2.44753C13.34 1.26749 11.6648 1.26749 10.9712 2.44753L0.257228 20.6767C-0.456886 21.8917 0.400435 23.4375 1.78842 23.4375H23.2164C24.6044 23.4375 25.4617 21.8917 24.7476 20.6767L14.0336 2.44753Z" fill="#484848"/>
<path d="M10.9399 18.75C10.9399 17.8871 11.6395 17.1875 12.5024 17.1875C13.3654 17.1875 14.0649 17.8871 14.0649 18.75C14.0649 19.6129 13.3654 20.3125 12.5024 20.3125C11.6395 20.3125 10.9399 19.6129 10.9399 18.75Z" fill="#484848"/>
<path d="M11.093 9.36725C11.0097 8.53482 11.6634 7.8125 12.5 7.8125C13.3366 7.8125 13.9903 8.53482 13.907 9.36725L13.359 14.8476C13.3149 15.2889 12.9435 15.625 12.5 15.625C12.0565 15.625 11.6851 15.2889 11.641 14.8476L11.093 9.36725Z" fill="#484848"/>
</svg>
