<svg width="18" height="15" viewBox="0 0 18 15" fill="none" xmlns="http://www.w3.org/2000/svg">
<path d="M16.9764 6.757C16.9395 6.757 16.9027 6.757 16.8585 6.757C16.1808 6.757 11.2895 7.29474 11.54 7.79566C11.7831 8.28921 14.7959 8.52493 16.9395 8.5323C17.3889 8.45127 17.713 8.04612 17.6836 7.58203C17.6467 7.16951 17.3521 6.84539 16.9764 6.757ZM15.3189 11.9282C13.4405 10.8969 10.6855 9.65936 10.2361 9.97611C9.77941 10.2929 13.8088 13.1142 14.4055 13.4457C14.4423 13.4678 14.4792 13.4825 14.5086 13.4973C14.8843 13.6077 15.2968 13.4604 15.5178 13.1216C15.7609 12.7238 15.6725 12.2155 15.3189 11.9282ZM15.3189 3.44212C15.6725 3.15483 15.7683 2.64654 15.5178 2.25612C15.2968 1.9099 14.8843 1.76994 14.5086 1.88044C14.4792 1.89517 14.4423 1.91727 14.4055 1.932C13.8088 2.26349 9.78677 5.08482 10.2361 5.40158C10.6855 5.71097 13.4331 4.47341 15.3189 3.44212ZM4.03361 11C3.47377 12.5838 2.95812 13.3205 1.76476 13.3205C1.6469 13.3205 1.24911 13.2984 1.22701 13.291C0.84396 13.2689 0.483006 13.5194 0.379877 13.9098C0.262014 14.3518 0.519839 14.8011 0.954456 14.9263C1.27121 14.9779 1.59533 15 1.88262 15C4.07781 15 4.79972 13.7403 5.52899 11.8914L9.80887 1.2101C9.96356 0.723913 9.69101 0.208265 9.21219 0.0535702C8.74074 -0.0937579 8.23983 0.1567 8.0704 0.613417L5.06491 8.56913H5.01334L1.85316 0.554486C1.63953 0.105135 1.10915 -0.115857 0.630334 0.0609365C0.144152 0.245097 -0.113672 0.782844 0.0483887 1.27639L4.03361 11Z" fill="white"/>
</svg>
